<svg width="448" height="623" viewBox="0 0 448 623" fill="none" xmlns="http://www.w3.org/2000/svg">
<path d="M444.895 440.374C423.702 530.956 350.714 559.177 228.392 559.177C106.07 559.177 18.7272 534.733 2.55033 440.374C-12.3792 340.879 35.5266 75.1306 218.438 69.3523C409.053 63.3306 462.316 365.913 444.895 440.374Z" fill="#FFC31C"/>
<path d="M131.591 572.692C141.991 560.022 131.591 496.671 131.591 496.671H184.391V593.809C184.391 610.703 170.2 619.309 153.191 621.683C137.023 623.94 118.821 625.174 113.191 609.013C107.931 593.916 121.191 585.362 131.591 572.692Z" fill="#FFC31C"/>
<path d="M256.391 572.692C266.791 560.022 256.391 496.671 256.391 496.671H309.191V593.809C309.191 610.703 295 619.309 277.991 621.683C261.823 623.94 243.621 625.174 237.991 609.013C232.731 593.916 245.991 585.362 256.391 572.692Z" fill="#FFC31C"/>
<ellipse cx="40.6283" cy="42.5" rx="40.6283" ry="42.5" transform="matrix(-0.951646 -0.307196 0.278134 -0.960542 142.396 261.295)" fill="#F8F8FA"/>
<circle cx="102.391" cy="199.406" r="23.5" transform="rotate(-163 102.391 199.406)" fill="#362D30"/>
<ellipse cx="40.6283" cy="42.5" rx="40.6283" ry="42.5" transform="matrix(-0.951646 -0.307196 0.278134 -0.960542 241.521 261.295)" fill="#F8F8FA"/>
<circle cx="201.517" cy="199.406" r="23.5" transform="rotate(-163 201.517 199.406)" fill="#362D30"/>
</svg>
