<svg width="456" height="634" viewBox="0 0 456 634" fill="none" xmlns="http://www.w3.org/2000/svg">
<path d="M452.839 445.374C431.268 535.956 356.977 564.177 232.471 564.177C107.965 564.177 19.0616 539.733 2.59587 445.374C-12.6002 345.879 36.161 80.1306 222.339 74.3523C416.358 68.3306 470.571 370.913 452.839 445.374Z" fill="#FFC31C"/>
<path d="M133.94 582.804C144.526 569.91 133.94 505.44 133.94 505.44H187.683V604.294C187.683 621.485 173.239 630.244 155.926 632.66C139.469 634.957 120.943 636.212 115.212 619.766C109.858 604.403 123.355 595.698 133.94 582.804Z" fill="#FFC31C"/>
<path d="M260.969 582.804C271.555 569.91 260.969 505.44 260.969 505.44H314.712V604.294C314.712 621.485 300.268 630.244 282.955 632.66C266.498 634.957 247.971 636.212 242.24 619.766C236.887 604.403 250.383 595.698 260.969 582.804Z" fill="#FFC31C"/>
<ellipse cx="41.3538" cy="43.2589" rx="41.3538" ry="43.2589" transform="matrix(-0.951646 -0.307196 0.278134 -0.960542 144.938 267.247)" fill="#F8F8FA"/>
<circle cx="104.219" cy="204.406" r="23.9196" transform="rotate(-163 104.219 204.406)" fill="#362D30"/>
<ellipse cx="41.3538" cy="43.2589" rx="41.3538" ry="43.2589" transform="matrix(-0.951646 -0.307196 0.278134 -0.960542 245.834 267.247)" fill="#F8F8FA"/>
<circle cx="205.115" cy="204.406" r="23.9196" transform="rotate(-163 205.115 204.406)" fill="#362D30"/>
<path d="M355.198 0.241554C275.368 4.70417 262.2 87.707 262.2 87.707L292.651 89.492C292.651 89.492 297.583 35.9417 355.198 35.9417C377.42 35.9417 381.535 45.7594 397.995 50.2219C414.454 54.6844 435.029 -4.22106 355.198 0.241554Z" fill="#FFC31C"/>
</svg>
