<svg width="48" height="48" viewBox="0 0 48 48" fill="none" xmlns="http://www.w3.org/2000/svg">
<path d="M24.0071 46.704V44.2235C24.0071 44.2235 16.4584 40.8258 4.00004 41.007V44.7672C4.13595 45.3107 4.63428 45.3107 4.63428 45.3107H22.2119C22.6196 46.704 24.0071 46.704 24.0071 46.704Z" stroke="white" stroke-width="2"/>
<path d="M24.0139 43.9047V35.8695C24.0139 35.8695 32.4403 24.3379 44.0379 23.547C46.0313 23.4111 46.9373 24.5436 46.9826 25.7216C46.9373 27.6696 47.0732 38.3611 46.9373 38.6783C46.883 39.0407 46.892 40.3092 44.5816 40.7169C31.3983 40.6263 24.0139 43.9047 24.0139 43.9047Z" stroke="white" stroke-width="2"/>
<path d="M23.9856 43.9047V35.8695C23.9856 35.8695 15.5592 24.3379 3.9616 23.547C1.96826 23.4111 1.06219 24.5436 1.01689 25.7216C1.06219 27.6696 0.926285 38.3611 1.06219 38.6783C1.11656 39.0407 1.1075 40.3092 3.41796 40.7169C16.6012 40.6263 23.9856 43.9047 23.9856 43.9047Z" stroke="white" stroke-width="2"/>
<path d="M24.0139 43.8315V26.7975C24.0139 26.7975 30.2658 18.9601 37.5143 18.643C38.1485 18.643 39.87 18.7789 40.1872 20.8628C40.2778 25.8461 40.1418 33.7289 40.1418 33.7289C40.1418 33.7289 40.1418 35.7177 37.5143 36.1753C28.4083 37.7609 24.0139 43.8315 24.0139 43.8315Z" stroke="white" stroke-width="2"/>
<path d="M23.9856 43.8315V26.7975C23.9856 26.7975 17.7338 18.9601 10.4852 18.643C9.851 18.643 8.12948 18.7789 7.81236 20.8628C7.72176 25.8461 7.85766 33.7289 7.85766 33.7289C7.85766 33.7289 7.85766 35.7177 10.4852 36.1753C19.5912 37.7609 23.9856 43.8315 23.9856 43.8315Z" stroke="white" stroke-width="2"/>
<path d="M35.9042 5.97663C37.4897 11.4583 31.4644 18.9253 24.0347 16.6682C23.8988 16.2151 23.3551 6.20312 30.2413 3.39436C32.6423 2.48831 35.1703 3.43966 35.9042 5.97663Z" stroke="white" stroke-width="2"/>
<path d="M14.1586 7.92439C13.2525 12.2282 18.0093 18.4347 23.8427 16.7338C23.9548 16.359 23.8427 8.60395 18.7231 5.75564C16.3331 4.93439 14.5823 5.96415 14.1586 7.92439Z" stroke="white" stroke-width="2"/>
<path d="M24.4878 16.804L35.9042 6.02191" stroke="white" stroke-width="2"/>
<path d="M23.8534 16.3966L15.5176 5.93156" stroke="white" stroke-width="2"/>
<rect x="23.4885" y="16.3477" width="1.02221" height="10.2222" fill="white"/>
<path d="M25 46.704V44.2235C25 44.2235 32.5487 40.8258 45.007 41.007V44.7672C44.8711 45.3107 44.3728 45.3107 44.3728 45.3107H26.7952C26.3874 46.704 25 46.704 25 46.704Z" stroke="white" stroke-width="2"/>
</svg>
